HIERARCHY
ROOT ui
{
	 OFFSET 0 0 0
	 CHANNELS 3 XPosition YPosition Z Position
	 EndSite
	 {
	 OFFSET 0 -1 0
	 }
}
ROOT li
{
	 OFFSET 0 0 0
	 CHANNELS 3 XPosition YPosition Z Position
	 EndSite
	 {
	 OFFSET 0 -1 0
	 }
}
ROOT ul
{
	 OFFSET 0 0 0
	 CHANNELS 3 XPosition YPosition Z Position
	 EndSite
	 {
	 OFFSET 0 -1 0
	 }
}
ROOT ll
{
	 OFFSET 0 0 0
	 CHANNELS 3 XPosition YPosition Z Position
	 EndSite
	 {
	 OFFSET 0 -1 0
	 }
}
ROOT tt
{
	 OFFSET 0 0 0
	 CHANNELS 3 XPosition YPosition Z Position
	 EndSite
	 {
	 OFFSET 0 -1 0
	 }
}
ROOT tb
{
	 OFFSET 0 0 0
	 CHANNELS 3 XPosition YPosition Z Position
	 EndSite
	 {
	 OFFSET 0 -1 0
	 }
}
ROOT td
{
	 OFFSET 0 0 0
	 CHANNELS 3 XPosition YPosition Z Position
	 EndSite
	 {
	 OFFSET 0 -1 0
	 }
}
ROOT v
{
	 OFFSET 0 0 0
	 CHANNELS 3 XPosition YPosition Z Position
	 EndSite
	 {
	 OFFSET 0 -1 0
	 }
}
ROOT bn
{
	 OFFSET 0 0 0
	 CHANNELS 3 XPosition YPosition Z Position
	 EndSite
	 {
	 OFFSET 0 -1 0
	 }
}
MOTION
Frames: 29
Frame Time: 0.002
0.009571090698242187	-0.0012090690135955812	0		0.5229752807617187	-2.33598486328125	0		-1.124613037109375	-0.011760793685913085	0		-0.7908248291015625	-2.31056298828125	0		1.61518359375	-0.5008625183105468	0		3.123954345703125	0.01660824203491211	0		4.64413623046875	0.1159285659790039	0		5.5807451171875	0.17519593811035156	0		-0.3486225280761719	5.905078125	0		
-0.06236613845825195	0.0033714749813079834	0		0.48473544311523437	-2.334840087890625	0		-1.1135233154296875	-0.0049711217880249025	0		-0.7761426391601562	-2.31685498046875	0		1.6171402587890624	-0.5012862243652344	0		3.150179443359375	0.034744491577148436	0		4.64022998046875	0.12122431945800781	0		5.5843642578125	0.1857515869140625	0		-0.2977580871582031	5.92034619140625	0		
0.02375869560241699	0.008191588401794434	0		0.506626220703125	-2.327364013671875	0		-1.1114613037109375	-0.005092563152313233	0		-0.7832256469726563	-2.306913818359375	0		1.62318017578125	-0.4987568664550781	0		3.1630771484375	0.01902577018737793	0		4.6473955078125	0.1284053649902344	0		5.57942919921875	0.18963612365722657	0		-0.34321221923828127	5.90467236328125	0		
-0.055194328308105466	0.005857409000396729	0		0.47946676635742186	-2.326337890625	0		-1.1093870849609375	-0.005222198963165284	0		-0.7813960571289063	-2.307078369140625	0		1.6211683349609376	-0.5021318359375	0		3.163301025390625	0.03146341896057129	0		4.64541650390625	0.12170902252197266	0		5.5850966796875	0.1707855987548828	0		-0.17421482849121095	5.92958203125	0		
0.017777494430541992	-0.002193660020828247	0		0.5082544250488281	-2.3299404296875	0		-1.118308349609375	-0.003233228921890259	0		-0.7815932006835937	-2.309224609375	0		1.6182427978515626	-0.4964839782714844	0		3.15823486328125	0.019981359481811522	0		4.65847216796875	0.11987311553955078	0		5.582353515625	0.18683070373535157	0		-0.33885333251953126	5.90525927734375	0		
-0.058196475982666016	-5.425320267677307E-4	0		0.4810507507324219	-2.329898193359375	0		-1.11035693359375	-0.008442827224731445	0		-0.7458566284179687	-2.314787353515625	0		1.62513720703125	-0.5029346923828125	0		3.144247314453125	0.01962953567504883	0		4.6444130859375	0.11238321685791015	0		5.58797412109375	0.16811610412597655	0		-0.32119595336914064	5.913873046875	0		
0.02172781753540039	-0.0026805839538574217	0		0.4957594909667969	-2.33332861328125	0		-1.1724237060546876	-0.00884696102142334	0		-0.8390466918945313	-2.308863525390625	0		1.6310703125	-0.5003579406738281	0		3.180153076171875	0.015730847358703615	0		4.65434033203125	0.10965895080566407	0		5.59574365234375	0.16153132629394532	0		-0.30266363525390627	5.92147509765625	0		
-0.04328455352783203	0.008865697860717774	0		0.5264228515625	-2.33493701171875	0		-1.0974810791015626	-0.001841946005821228	0		-0.7254453735351563	-2.316337646484375	0		1.63288720703125	-0.5007149353027344	0		3.17117333984375	0.029382999420166016	0		4.66229638671875	0.1170008316040039	0		5.5928623046875	0.177824462890625	0		-0.28238153076171874	5.9190556640625	0		
0.03240695571899414	0.0027770020961761475	0		0.517090087890625	-2.329068359375	0		-1.099773193359375	-0.005944264888763428	0		-0.7727507934570312	-2.307938232421875	0		1.6256435546875	-0.49794448852539064	0		3.149802490234375	0.01821415328979492	0		4.6550830078125	0.11856562805175781	0		5.59190771484375	0.1647442169189453	0		-0.29435302734375	5.908015625	0		
-0.05100345230102539	-0.0014370650053024292	0		0.5165703735351562	-2.331289794921875	0		-1.1031661376953126	-0.009034111022949218	0		-0.7372953491210937	-2.31250732421875	0		1.632185302734375	-0.5043143920898437	0		3.170515380859375	0.023587608337402345	0		4.66772021484375	0.1169442138671875	0		5.59016064453125	0.15178038024902343	0		-0.30748724365234376	5.89699658203125	0		
-0.04948176956176758	-0.0016391379833221435	0		0.4999024658203125	-2.3373076171875	0		-1.101644775390625	-0.00918206787109375	0		-0.7738898315429688	-2.31222412109375	0		1.6287525634765625	-0.49854425048828127	0		3.17388427734375	0.010197075843811035	0		4.653166015625	0.10968936920166016	0		5.59415185546875	0.16296575927734375	0		-0.310472412109375	5.91286572265625	0		
0.029899375915527344	-0.003758436918258667	0		0.5301972045898438	-2.33786865234375	0		-1.0892711181640624	-0.01145926570892334	0		-0.7596641845703125	-2.3185390625	0		1.6350577392578125	-0.5048688049316407	0		3.168521484375	0.029945980072021483	0		4.6637353515625	0.12318412017822265	0		5.59514404296875	0.16221556091308595	0		-0.274747314453125	5.91827978515625	0		
-0.03568585205078125	0.007854374885559082	0		0.49552566528320313	-2.326643310546875	0		-1.0898851318359375	-0.0025807600021362305	0		-0.765313232421875	-2.305613037109375	0		1.6403541259765626	-0.5021595458984375	0		3.164635009765625	0.015708471298217775	0		4.6699228515625	0.11477312469482422	0		5.596052734375	0.1615552520751953	0		-0.27325503540039064	5.91810595703125	0		
0.04246262359619141	0.005762643814086914	0		0.5235861206054687	-2.33015283203125	0		-1.097802490234375	-0.00961391544342041	0		-0.7573702392578125	-2.318846435546875	0		1.6374696044921875	-0.5053319091796875	0		3.179943603515625	0.027275766372680664	0		4.6670205078125	0.10851312255859374	0		5.596880859375	0.16098088073730468	0		-0.28604815673828127	5.907109375	0		
-0.04457979202270508	-0.002346190929412842	0		0.49560626220703125	-2.3289794921875	0		-1.0967437744140625	-0.009751031875610352	0		-0.767267333984375	-2.310860107421875	0		1.6335892333984374	-0.4994715576171875	0		3.176943603515625	0.02208998680114746	0		4.66724951171875	0.12225637817382813	0		5.59763330078125	0.1604854736328125	0		-0.31891287231445314	5.90236083984375	0		
0.03436122131347656	-0.004432711124420166	0		0.5234873046875	-2.3324638671875	0		-1.0998330078125	-0.013836363792419433	0		-0.7683718872070312	-2.312975341796875	0		1.6394671630859374	-0.505711181640625	0		3.162903564453125	0.022063392639160156	0		4.66904248046875	0.10801358032226563	0		5.59831494140625	0.1600601043701172	0		-0.3178536376953125	5.90221435546875	0		
-0.04275564956665039	-0.0026407599449157714	0		0.5161572875976562	-2.3465166015625	0		-1.15892724609375	-0.01024687671661377	0		-0.7525833129882813	-2.317289306640625	0		1.6443623046875	-0.5029227600097657	0		3.193659423828125	0.012522275924682618	0		4.66705322265625	0.11984878540039062	0		5.60532421875	0.154320556640625	0		-0.2867030029296875	5.91971337890625	0		
0.04612656784057617	0.005166823863983154	0		0.540074462890625	-2.33393310546875	0		-1.0791165771484375	-0.008322314262390136	0		-0.758663818359375	-2.3043359375	0		1.645138916015625	-0.5030706481933593	0		3.178693359375	0.03355324935913086	0		4.68085791015625	0.12152171325683593	0		5.59948681640625	0.15939064025878907	0		-0.26691494750976563	5.91635205078125	0		
-0.03723569107055664	4.861300066113472E-5	0		0.5008446655273437	-2.32758251953125	0		-1.093435791015625	-0.01026552677154541	0		-0.7640520629882812	-2.311387939453125	0		1.6368775634765624	-0.5000961608886719	0		3.149255126953125	0.021775474548339845	0		4.67139453125	0.10749839782714844	0		5.59998876953125	0.15913565063476562	0		-0.28130877685546873	5.90640625	0		
0.04441716384887695	9.55502986907959E-4	0		0.5523909301757812	-2.335314697265625	0		-1.0928011474609376	-0.010385242462158203	0		-0.7634180297851563	-2.3115078125	0		1.6315845947265626	-0.4941449890136719	0		3.1808876953125	0.02128221893310547	0		4.67811279296875	0.11430451202392578	0		5.5975283203125	0.14689939880371095	0		-0.3298611145019531	5.8908759765625	0		
-0.040064289093017576	-0.0031366360187530516	0		0.5000330505371093	-2.32979052734375	0		-1.0903367919921876	-0.019524723052978515	0		-0.7648637084960938	-2.313598876953125	0		1.6380858154296876	-0.5003259887695313	0		3.187363525390625	0.013105215072631836	0		4.66974609375	0.11931041717529296	0		5.60085009765625	0.15875276184082032	0		-0.3131963195800781	5.8995693359375	0		
0.038434539794921875	-0.0051806168556213375	0		0.519355224609375	-2.34712255859375	0		-1.0857725830078124	-0.01568577194213867	0		-0.7863465576171875	-2.31444580078125	0		1.6475679931640625	-0.503533447265625	0		3.177060791015625	0.028143985748291016	0		4.67718896484375	0.11314173889160156	0		5.60121875	0.1586124267578125	0		-0.2844341125488281	5.92212255859375	0		
-0.027962427139282226	0.006520835876464843	0		0.5119701232910157	-2.336125732421875	0		-1.086210205078125	-0.007783679008483887	0		-0.7489031372070313	-2.317996826171875	0		1.6421220703125	-0.496552490234375	0		3.1824423828125	0.021004482269287108	0		4.6727509765625	0.12113145446777343	0		5.6015517578125	0.15850161743164062	0		-0.2792009582519531	5.9059599609375	0		
0.03932190704345703	-0.0053780097961425785	0		0.5284464111328125	-2.333409423828125	0		-1.09082470703125	-0.010829145431518555	0		-0.761388916015625	-2.311944091796875	0		1.644427490234375	-0.5066575622558593	0		3.1869228515625	0.02588784408569336	0		4.66909912109375	0.11512453460693359	0		5.601853515625	0.15841841125488282	0		-0.27883148193359375	5.905861328125	0		
-0.031209135055541994	0.002382117033004761	0		0.5288504638671875	-2.333494140625	0		-1.09638427734375	-0.005859148979187012	0		-0.7270474243164062	-2.31744921875	0		1.62804150390625	-0.487528564453125	0		3.168244140625	0.021058431625366213	0		4.66947802734375	0.11508246612548828	0		5.59793212890625	0.17578350830078124	0		-0.27851248168945314	5.90576806640625	0		
0.04004359436035156	-0.0055515217781066896	0		0.5111485290527343	-2.3393564453125	0		-1.094150390625	-0.014979216575622558	0		-0.752737060546875	-2.322230224609375	0		1.6402322998046874	-0.5007365417480468	0		3.164513916015625	0.015059196472167968	0		4.66472314453125	0.10711267852783203	0		5.6058515625	0.14092245483398438	0		-0.33125921630859373	5.90431494140625	0		
-0.030562664031982423	0.0022198610305786135	0		0.5234099731445313	-2.345570556640625	0		-1.078822509765625	-0.013249704360961914	0		-0.747355712890625	-2.318376953125	0		1.6495069580078126	-0.50390087890625	0		3.20283984375	0.01656681251525879	0		4.67216943359375	0.11900886535644531	0		5.60898291015625	0.15293359375	0		-0.29498260498046874	5.907802734375	0		
0.05073592758178711	0.0041821608543396	0		0.5178651733398437	-2.332562744140625	0		-1.0745062255859374	-0.009381823539733887	0		-0.7450208740234375	-2.315480712890625	0		1.6497821044921874	-0.5039489440917969	0		3.18330078125	0.032776950836181644	0		4.67853173828125	0.1269284896850586	0		5.60498193359375	0.17036128234863282	0		-0.26368673706054685	5.9163583984375	0		
-0.026016069412231446	0.006039535999298096	0		0.5301153564453125	-2.33376025390625	0		-1.08929833984375	-0.011279308319091796	0		-0.7597213134765625	-2.3123740234375	0		1.64105615234375	-0.5008806762695313	0		3.153389892578125	0.021117977142333984	0		4.68160546875	0.11389665985107422	0		5.60294921875	0.15833900451660157	0		-0.27766812133789065	5.9054609375	0		
